<svg xmlns="http://www.w3.org/2000/svg" viewBox="0 0 460 360" role="img" aria-label="Persona completando una evaluación en una tablilla con marcas de verificación">
  <ellipse cx="230" cy="184" rx="215" ry="168" fill="#EAF4FC"/>

  <ellipse cx="228" cy="322" rx="150" ry="13" fill="#00196E" opacity=".08"/>

  <circle cx="70" cy="86" r="18" fill="#FFFFFF" stroke="#0072BC" stroke-width="3"/>
  <path d="M62 86l6 6 10-12" stroke="#0072BC" stroke-width="3" fill="none" stroke-linecap="round" stroke-linejoin="round"/>

  <circle cx="392" cy="106" r="16" fill="#8CC63F"/>
  <path d="M385 106l5 5 9-10" stroke="#FFFFFF" stroke-width="2.6" fill="none" stroke-linecap="round" stroke-linejoin="round"/>

  <circle cx="400" cy="250" r="14" fill="#F0A02C"/>
  <path d="M400 243v7m0 6v7m-9-18l3.4 3.4m10.6 10.6l3.4 3.4m-17.4 0l3.4-3.4m10.6-10.6l3.4-3.4" stroke="#FFFFFF" stroke-width="2" stroke-linecap="round"/>

  <rect x="150" y="80" width="160" height="220" rx="14" fill="#FFFFFF" stroke="#C9D5E3" stroke-width="3"/>
  <rect x="196" y="66" width="68" height="24" rx="8" fill="#0072BC"/>

  <rect x="172" y="118" width="116" height="9" rx="4.5" fill="#0072BC"/>
  <rect x="172" y="136" width="90" height="7" rx="3.5" fill="#DCE8F5"/>

  <rect x="172" y="164" width="18" height="18" rx="4" fill="#EAF4FC" stroke="#8CC63F" stroke-width="2.4"/>
  <path d="M176 173l2.6 2.8 5.4-6" stroke="#8CC63F" stroke-width="2.4" fill="none" stroke-linecap="round" stroke-linejoin="round"/>
  <rect x="198" y="169" width="90" height="7" rx="3.5" fill="#DCE8F5"/>

  <rect x="172" y="194" width="18" height="18" rx="4" fill="#EAF4FC" stroke="#8CC63F" stroke-width="2.4"/>
  <path d="M176 203l2.6 2.8 5.4-6" stroke="#8CC63F" stroke-width="2.4" fill="none" stroke-linecap="round" stroke-linejoin="round"/>
  <rect x="198" y="199" width="72" height="7" rx="3.5" fill="#DCE8F5"/>

  <rect x="172" y="224" width="18" height="18" rx="4" fill="#EAF4FC" stroke="#D6DFE8" stroke-width="2.4"/>
  <rect x="198" y="229" width="80" height="7" rx="3.5" fill="#EDF1F5"/>

  <rect x="172" y="254" width="116" height="26" rx="8" fill="#0072BC"/>
  <rect x="196" y="262" width="68" height="9" rx="4.5" fill="#FFFFFF"/>

  <g>
    <rect x="284" y="180" width="62" height="94" rx="24" fill="#00568F"/>
    <rect x="298" y="180" width="28" height="15" rx="7.5" fill="#4FA8DE"/>
    <circle cx="312" cy="163" r="22" fill="#C88855"/>
    <path d="M290 159a22 22 0 0 1 44 0c-8 -6 -32 -6 -44 0z" fill="#241713"/>
    <rect x="264" y="206" width="34" height="14" rx="7" fill="#00568F" transform="rotate(-24 264 206)"/>
    <rect x="330" y="200" width="16" height="46" rx="8" fill="#00568F" transform="rotate(18 338 223)"/>
  </g>
</svg>
